<?xml version="1.0" encoding="UTF-8"?>
<svg width="153px" height="151px" viewBox="0 0 153 151" version="1.1" xmlns="http://www.w3.org/2000/svg" xmlns:xlink="http://www.w3.org/1999/xlink">
    <!-- Generator: Sketch 60.1 (88133) - https://sketch.com -->
    <title>Group 2</title>
    <desc>Created with Sketch.</desc>
    <defs>
        <linearGradient x1="50%" y1="7.90360464%" x2="48.3026859%" y2="119.37318%" id="linearGradient-1">
            <stop stop-color="#FACF5B" offset="0%"></stop>
            <stop stop-color="#F8882E" offset="100%"></stop>
        </linearGradient>
        <path d="M80.3620479,1.64790349 C79.3727906,1.15080212 78.2733581,0.813278332 76.9570544,0.79490969 L76.9570544,0.816722452 L76.8468792,0.816722452 L76.8468792,0.79490969 C75.5398534,0.813278332 74.4415806,1.14850604 73.4511635,1.64216329 C72.2369169,2.24718043 70.9820793,3.19316548 69.7272418,4.13800249 L69.7133249,4.14489073 C68.1511566,5.32392792 66.5831895,6.50411315 65.0975639,6.74749765 C63.6571681,6.98514195 61.8178222,6.36749638 59.9842749,5.75329492 C57.3841402,4.88078444 54.7909639,4.00942199 52.160676,4.87848836 L52.107328,4.89570896 C49.5338673,5.80610476 47.9983729,8.07578006 46.4617188,10.3488995 C46.1346724,10.8322244 45.812265,11.309809 45.3669253,11.938935 C44.6444079,12.9606907 43.8650633,13.8022041 42.9801825,14.2797888 L42.9593072,14.2993055 C42.067468,14.7780382 40.9309238,14.9605766 39.6760863,14.9961658 C39.1982738,15.0099423 38.4873538,15.0122384 37.7752741,15.0145345 C36.2374603,15.0202747 34.6996464,15.0248668 33.3033208,15.2900641 C32.2247635,15.4944152 31.156644,15.8939332 30.1117192,16.6791926 L30.0676491,16.717078 C29.0308425,17.5287423 28.3639926,18.4701352 27.8827009,19.4723742 C27.2935535,20.7019252 26.8911241,22.2047097 26.4886947,23.7086422 C26.3854779,24.0966798 26.2706638,24.5168624 25.9656525,25.5661711 L25.9656525,25.5868358 C25.6142516,26.7899819 25.1561547,27.8346984 24.470749,28.569444 C23.7830238,29.3110779 22.7636132,29.8518048 21.5818392,30.2892081 C21.1852085,30.4361572 20.4940041,30.6726535 19.8039594,30.9102978 L19.7900426,30.9125939 C17.2015052,31.802325 14.6176069,32.6932041 13.0832723,34.9755078 L13.0693554,34.9950245 C12.351477,36.1051793 12.0290696,37.1992615 11.9061372,38.2864555 C11.7530517,39.6216262 11.8655464,41.1772205 11.9792008,42.7351109 L11.9803605,42.7592198 C12.1218487,44.710888 12.2633368,46.6660003 11.6695505,48.0103552 C11.2566834,48.9414158 10.4657415,49.7829292 9.49040101,50.5704847 C9.20742471,50.7989446 8.6147981,51.2593087 8.02101177,51.7196728 C6.79284822,52.6725461 5.56468468,53.6254194 4.665887,54.643731 C3.94684885,55.4576914 3.35306251,56.4231931 3.01209926,57.6837412 L2.99470318,57.793953 C2.67693471,59.0636854 2.73376192,60.1990971 2.97266814,61.2610342 C3.25680418,62.5250263 3.88422295,63.9830373 4.51048198,65.4399001 C5.28054864,67.2342868 6.05293478,69.0298216 5.93232193,70.4843884 L5.93232193,70.5050531 C5.81054934,71.9665082 4.75634664,73.5795045 3.70330368,75.1867607 C2.21303913,77.4644722 0.727413544,79.7352956 0.919930209,82.4504104 L0.928048381,82.5066644 C1.04866123,83.8200223 1.48008412,84.8922917 2.06459255,85.8394248 C2.75579696,86.9587639 3.81927757,88.1263207 4.88159844,89.2950256 C5.20052665,89.6451778 5.5206146,89.9964781 6.17122815,90.7415561 C7.00392071,91.6909853 7.64293687,92.6530429 7.88996126,93.6208407 C8.25411929,95.0501506 7.78326528,96.9122717 7.31473075,98.7766888 L7.31473075,98.7962055 L7.31357101,98.8030937 L7.27298015,98.9661154 C6.62120686,101.537725 6.01350365,104.101299 7.078144,106.560401 L7.09090113,106.585658 C7.62670052,107.769287 8.38632953,108.638353 9.25613374,109.351286 C10.3497676,110.245609 11.7043427,110.989539 13.0589177,111.735766 L13.3674083,111.904527 L13.3882836,111.916008 L13.4277147,111.937821 C15.0084389,112.810331 16.5381346,113.70695 17.3174791,114.874507 L17.3255973,114.868767 C17.8799525,115.70454 18.1513314,116.822731 18.2835417,118.078687 C18.3960364,119.163585 18.4354675,119.579176 18.464461,119.924736 C18.6024699,121.479182 18.7381594,123.034776 19.0930395,124.275808 C19.3760158,125.265418 19.8341127,126.23666 20.632013,127.166573 L20.7224727,127.241195 L20.8245297,127.382404 C21.7360845,128.34561 22.7450574,128.929962 23.8027393,129.327184 C25.0355418,129.7864 26.5977102,130.064226 28.1598785,130.338607 C28.6724831,130.429303 29.2001644,130.521146 30.0676491,130.68876 C31.3282853,130.930996 32.4311971,131.294925 33.2175001,131.899942 C33.7533204,132.40091 34.1365386,132.816437 34.3671545,133.146522 C34.586775,133.46087 34.8789115,134.011993 35.243564,134.799891 C35.6970219,135.761949 35.8338711,136.063883 35.9556437,136.337117 C36.5992988,137.775611 37.2417942,139.212958 37.9828674,140.273747 C38.6068069,141.16807 39.4197839,141.980882 40.6073566,142.630673 L40.6340306,142.644449 C43.0497668,143.911886 45.7774728,143.495147 48.5109775,143.073816 L48.5272139,143.068076 L48.5411307,143.068076 L48.6918968,143.031339 L48.6965358,143.045115 C50.58807,142.754661 52.4656873,142.483724 53.8422975,142.950976 C54.8072003,143.278168 55.7083174,143.98536 56.5850801,144.880832 C56.6419073,144.939382 57.247291,145.585728 57.8747098,146.257332 L57.8851474,146.246999 C58.9625449,147.397335 60.0411021,148.547672 61.1150204,149.335227 C61.9755467,149.964353 62.9891585,150.461454 64.3054622,150.694507 L64.3669284,150.700247 C65.6832321,150.906894 66.8360126,150.756501 67.9099309,150.427013 C69.1786853,150.035532 70.5808096,149.30423 71.982934,148.572929 C73.7283411,147.661385 75.4737482,146.750989 76.9663323,146.750989 C77.9776246,146.750989 79.0654598,147.126398 80.1846078,147.690086 C80.7865124,147.99202 81.3315897,148.281326 81.8662293,148.564892 C83.2393602,149.295046 84.6113314,150.022903 85.8916832,150.421273 C86.9621222,150.755353 88.1172222,150.908042 89.4358454,150.700247 L89.4949921,150.695655 C92.1345579,150.224958 94.0040571,148.300843 95.8607992,146.348027 L95.8874731,146.315882 L95.8897926,146.312438 L95.9721341,146.230927 C97.3116326,144.822281 98.6592492,143.407896 100.084568,142.916535 C101.049471,142.581307 102.198772,142.588195 103.443172,142.760401 C103.926784,142.826988 104.622627,142.939496 105.316151,143.052004 C108.025301,143.488259 110.728652,143.924514 113.169903,142.644449 L113.197737,142.631821 C114.352837,141.998103 115.165814,141.17955 115.80483,140.270302 C116.599251,139.140631 117.245226,137.726246 117.888881,136.314156 C118.137065,135.772281 118.384089,135.229258 118.687941,134.594392 C119.126322,133.678256 118.990371,133.62173 120.122538,132.339641 C120.877316,131.484915 122.855057,130.784611 126.055762,130.238728 C127.494998,129.994195 128.90872,129.738182 130.015111,129.328332 C131.053077,128.944887 132.052772,128.360534 132.978244,127.382404 L133.081461,127.241195 L133.162643,127.158536 C133.944307,126.260769 134.395445,125.295267 134.680741,124.301065 C135.072733,122.937193 135.21886,121.409152 135.362667,119.879962 L135.545906,117.955847 C135.692033,116.74122 135.983128,115.639102 136.546761,114.781516 C137.363217,113.545077 139.007727,112.640421 140.663834,111.746098 L140.656876,111.733469 L140.661515,111.731173 L140.764731,111.689844 C142.139022,110.947062 143.514472,110.20428 144.553598,109.360471 C145.408326,108.667054 146.162156,107.799136 146.711873,106.585658 L146.72463,106.560401 C147.246512,105.354959 147.379882,104.224139 147.319576,103.128909 C147.243033,101.754705 146.874236,100.242736 146.504279,98.7319152 C146.305964,97.9191029 146.106489,97.1005503 146.046182,96.8192804 C145.786401,95.6126903 145.695941,94.4761306 145.945285,93.4980004 L145.945285,93.4773357 C146.194629,92.5072418 146.832485,91.5589607 147.665178,90.6152717 C147.836819,90.4201049 148.378418,89.8334564 148.923495,89.2433638 C149.973059,88.106804 151.021463,86.9702443 151.74514,85.8118719 C152.325009,84.8819594 152.754113,83.8223184 152.874725,82.5066644 L152.884003,82.4492624 C152.975623,81.1703457 152.728598,80.0682272 152.312252,79.0545078 C151.767175,77.7262254 150.935642,76.4346803 150.102949,75.1431351 L150.083234,75.1224704 L150.073956,75.109842 L150.079755,75.1075459 C149.029031,73.4761809 147.982947,71.8425198 147.860014,70.3776207 L147.860014,70.3569559 C147.742881,68.9345342 148.49903,67.1964015 149.260979,65.4605649 L149.280694,65.3652775 C149.904634,63.9440039 150.528574,62.5238783 150.823147,61.2392214 C151.064373,60.1830245 151.124679,59.0567971 150.818508,57.7916569 L150.80923,57.793953 L150.781397,57.6860373 L150.790675,57.6837412 C150.450871,56.4254892 149.853605,55.4530992 149.127609,54.6242143 C148.258964,53.6311596 147.014565,52.6507333 145.771324,51.6714551 L145.760887,51.6611228 C144.214955,50.4453483 142.670182,49.2295738 142.082195,47.8932551 C141.489568,46.5534923 141.644973,44.6397095 141.798059,42.7224825 L141.799218,42.6926334 C142.01609,39.9958872 142.228322,37.3014371 140.733418,34.9961726 L140.719502,34.9755078 C139.981908,33.8768335 139.092388,33.1409397 138.127485,32.5875844 C136.958468,31.917129 135.464724,31.3913266 133.970981,30.8655242 C133.392271,30.6623211 132.81936,30.4602661 132.140913,30.2065492 C130.956819,29.7611097 129.933929,29.2146426 129.245044,28.4764528 C128.543402,27.7210424 128.082986,26.6740298 127.743182,25.4835122 C127.729266,25.4341465 127.503117,24.5593399 127.273488,23.6776451 C126.884976,22.1828969 126.497623,20.6881487 125.915434,19.4608938 C125.446899,18.4724313 124.783529,17.5390747 123.735125,16.717078 L123.689895,16.6780446 C122.660047,15.9042656 121.589608,15.5047476 120.497134,15.2946563 C119.070655,15.0191266 117.528202,15.001906 115.986909,14.9858335 C115.233078,14.9777972 114.480408,14.9686129 114.022311,14.9525403 C112.763994,14.9054707 111.620492,14.7125999 110.729812,14.2396074 C109.430905,13.5438951 108.365104,11.9412311 107.299304,10.3408632 L107.237838,10.2605004 L107.233199,10.2524641 C106.405146,8.99650822 105.567814,7.74858863 104.60755,6.76357021 C103.856039,5.9932353 102.941005,5.33426028 101.698925,4.89570896 L101.643258,4.87848836 C99.0268865,4.01401415 96.4047167,4.87389619 93.7790677,5.73492628 C91.9002907,6.35027577 90.0226733,6.96447723 88.5776386,6.72683293 L88.557923,6.72683293 C87.0989714,6.48574451 85.5646368,5.31359556 84.0326217,4.14029857 C82.791701,3.19316548 81.5600582,2.25062455 80.3620479,1.64790349 Z" id="path-2"></path>
        <polygon id="path-4" points="0.248501255 0.00687753367 10.6672162 0.00687753367 10.6672162 11.3881874 0.248501255 11.3881874"></polygon>
        <polygon id="path-6" points="0 0.185111663 10.562718 0.185111663 10.562718 11.5853218 0 11.5853218"></polygon>
        <linearGradient x1="57.6185323%" y1="38.563327%" x2="50%" y2="61.436673%" id="linearGradient-8">
            <stop stop-color="#F9B64B" offset="0%"></stop>
            <stop stop-color="#F9B249" offset="100%"></stop>
        </linearGradient>
        <linearGradient x1="82.0582663%" y1="32.6360018%" x2="3.13141196%" y2="45.4940178%" id="linearGradient-9">
            <stop stop-color="#FAC454" offset="0%"></stop>
            <stop stop-color="#FABE50" offset="100%"></stop>
        </linearGradient>
    </defs>
    <g id="Page-1" stroke="none" stroke-width="1" fill="none" fill-rule="evenodd">
        <g id="Subscribe" transform="translate(-1004.000000, -1081.000000)">
            <g id="Group-17" transform="translate(-2.000000, 720.000000)">
                <g id="Group-2" transform="translate(1006.000000, 360.000000)">
                    <g id="Group-5-Copy" transform="translate(7.344633, 22.509859)"></g>
                    <g id="Group-14">
                        <g id="Group" transform="translate(0.000000, 0.040562)">
                            <g id="“" transform="translate(0.000000, 0.308734)">
                                <g id="✔︎">
                                    <mask id="mask-3" fill="white">
                                        <use xlink:href="#path-2"></use>
                                    </mask>
                                    <use id="Mask" fill="url(#linearGradient-1)" fill-rule="nonzero" xlink:href="#path-2"></use>
                                    <g id="Group-12" mask="url(#mask-3)">
                                        <g transform="translate(76.974230, 76.201247) rotate(-8.000000) translate(-76.974230, -76.201247) translate(5.474230, 4.201247)">
                                            <g id="Group-4" stroke-width="1" fill="none" fill-rule="evenodd" transform="translate(4.000000, 0.000000)">
                                                <g id="Group-55">
                                                    <g id="Group-52-Copy" transform="translate(69.463151, 72.083289) rotate(-15.000000) translate(-69.463151, -72.083289) translate(13.463151, 13.083289)">
                                                        <g id="Group-51" transform="translate(0.000000, 0.000000)">
                                                            <path d="M92.3112681,25.0402329 C82.6980417,13.7790453 68.750396,7.14254197 53.7244328,7.14254197 C34.3069647,7.14254197 16.8812823,18.2572817 8.23815018,35.4108209 L92.3112681,25.0402329 Z M11.7816502,87.8652828 C21.1578019,102.167809 36.9704571,110.992179 54.2821184,110.992179 C79.6437578,110.992179 100.97435,92.1069326 104.728226,67.0387137 L11.7816502,87.8652828 Z" id="Shape" stroke="#FFFFFF" stroke-width="3" transform="translate(56.104910, 59.067360) rotate(6.000000) translate(-56.104910, -59.067360) "></path>
                                                            <path d="M36.5778557,79.9455361 C41.4368988,84.4927829 47.8034328,87.0869721 54.5806234,87.0869721 C65.5421155,87.0869721 75.2079505,80.2713808 79.2503801,70.2100292 L36.5778557,79.9455361 Z M70.9830132,38.7646649 C66.4071505,35.3196187 60.8397046,33.4102083 54.975428,33.4102083 C44.6928831,33.4102083 35.5026261,39.3165401 30.9917445,48.3347861 L70.9830132,38.7646649 Z" id="Shape" stroke="#FFFFFF" stroke-width="3"></path>
                                                            <g id="Group-31" transform="translate(54.093383, 59.672012) rotate(-10.000000) translate(-54.093383, -59.672012) translate(26.593383, 21.172012)">
                                                                <g id="Group-15" transform="translate(43.003264, 0.236386)">
                                                                    <mask id="mask-5" fill="white">
                                                                        <use xlink:href="#path-4"></use>
                                                                    </mask>
                                                                    <g id="Clip-14"></g>
                                                                </g>
                                                                <g id="Group-30" transform="translate(0.041288, 64.266958)">
                                                                    <mask id="mask-7" fill="white">
                                                                        <use xlink:href="#path-6"></use>
                                                                    </mask>
                                                                    <g id="Clip-29"></g>
                                                                </g>
                                                            </g>
                                                        </g>
                                                    </g>
                                                </g>
                                            </g>
                                            <g id="Group-11" stroke-width="1" fill="none" fill-rule="evenodd" transform="translate(61.509231, 45.135068) rotate(-26.000000) translate(-61.509231, -45.135068) translate(21.509231, 27.635068)">
                                                <path d="M70.4869558,15.0977256 L72.5368959,18.1456785 L67.5834753,25.2202726 L67.6221474,25.2777326 L76.0951819,23.4364742 L78.145122,26.4844271 L67.6951323,33.4237538 L66.1334723,31.1018706 L72.6584526,26.7690024 L72.6245407,26.7186532 L64.4823496,28.4131021 L63.4669804,26.9035124 L68.1621463,20.083605 L68.1234742,20.026145 L61.5985623,24.3590083 L60.0369708,22.0371203 L70.4869558,15.0977256 Z M5.90867294,12.5712333 L7.81863558,14.2925124 L4.22285496,18.2300146 L6.33933827,20.1374515 L9.60768342,16.5584967 L11.4208239,18.1925942 L8.15241043,21.771543 L11.6240089,24.9001037 L9.47816339,27.2498492 L0.167121126,18.8584191 L5.90867294,12.5712333 Z M14.2197946,6.31486949 L24.4964394,14.6355947 L21.6245041,16.4341366 L19.4813523,14.5345604 L16.0055599,16.7112634 L16.8010824,19.4548453 L14.0469583,21.1795875 L10.9133147,8.38555643 L14.2197946,6.31486949 Z M60.8972873,7.42498183 C64.0357236,9.56184222 64.5977558,12.9536917 62.3330965,16.234907 C60.0683686,19.5161223 56.6853379,20.2114688 53.546833,18.0746084 C50.4011947,15.9328431 49.834224,12.5481467 52.0989518,9.26693137 C54.3636111,5.98571606 57.7587824,5.28812145 60.8972873,7.42498183 Z M54.7849638,11.0957329 C53.4359904,13.0501559 53.5345553,14.9417001 55.0139882,15.9489886 C56.4862877,16.9513721 58.3052446,16.3654335 59.654218,14.4110104 C61.0081299,12.4494343 60.9024316,10.5530533 59.4302007,9.55060168 C57.9579012,8.54821817 56.1388757,9.13415677 54.7849638,11.0957329 Z M34.1560693,0.0681108495 L36.6374067,12.3020402 L34.1618996,12.7974414 L27.4557178,6.66678368 L27.38747,6.68040858 L28.843925,13.8614094 L25.8732616,14.4557955 L23.3919929,2.22179798 L25.8930157,1.72135559 L32.5599636,7.78933877 L32.6282114,7.77564575 L31.1854745,0.662496888 L34.1560693,0.0681108495 Z M13.9626213,9.60512316 L13.9037512,9.64199016 L15.3016895,14.4523386 L17.7244843,12.9351117 L13.9626213,9.60512316 Z M39.8931948,0.071864508 L44.9009335,1.04645324 C48.6267806,1.77163827 50.3907964,4.34469966 49.6205228,8.24898141 C48.8485344,12.1617106 46.2018249,14.0174213 42.4845516,13.2939394 L37.4768129,12.3192825 L39.8931948,0.071864508 Z M42.5337311,3.19455416 L41.1086907,10.4173834 L42.5700156,10.7018031 C44.6123725,11.0993094 45.9489995,10.0814616 46.4313293,7.63708738 C46.8851254,5.33700076 45.9776018,3.86476274 43.9950561,3.47890572 L42.5337311,3.19455416 Z" id="Combined-Shape" stroke="#FFFFFF" stroke-width="0.699999988" fill="#FFFFFF"></path>
                                                <g id="Group-10" transform="translate(37.457271, 0.012467)"></g>
                                            </g>
                                            <path d="M21,61.6347487 C32.1879107,59.7621288 39.5642214,62.0329265 43.1289321,68.4471419 C46.6936429,74.8613573 39.3173322,72.5905596 21,61.6347487 Z" id="Path-2" fill="url(#linearGradient-8)" fill-rule="evenodd"></path>
                                            <path d="M85.2180941,39.8459607 C96.369633,38.0321675 103.721963,40.2316301 107.275085,46.4443486 C110.828207,52.657067 103.475877,50.4576044 85.2180941,39.8459607 Z" id="Path-2-Copy" fill="url(#linearGradient-9)" fill-rule="evenodd" transform="translate(96.680708, 44.558374) rotate(-61.000000) translate(-96.680708, -44.558374) "></path>
                                            <g id="Group-11" stroke-width="1" fill="none" fill-rule="evenodd" transform="translate(80.185888, 101.514896) rotate(-203.000000) translate(-80.185888, -101.514896) translate(40.185888, 84.014896)">
                                                <path d="M70.4869558,15.0977256 L72.5368959,18.1456785 L67.5834753,25.2202726 L67.6221474,25.2777326 L76.0951819,23.4364742 L78.145122,26.4844271 L67.6951323,33.4237538 L66.1334723,31.1018706 L72.6584526,26.7690024 L72.6245407,26.7186532 L64.4823496,28.4131021 L63.4669804,26.9035124 L68.1621463,20.083605 L68.1234742,20.026145 L61.5985623,24.3590083 L60.0369708,22.0371203 L70.4869558,15.0977256 Z M5.90867294,12.5712333 L7.81863558,14.2925124 L4.22285496,18.2300146 L6.33933827,20.1374515 L9.60768342,16.5584967 L11.4208239,18.1925942 L8.15241043,21.771543 L11.6240089,24.9001037 L9.47816339,27.2498492 L0.167121126,18.8584191 L5.90867294,12.5712333 Z M14.2197946,6.31486949 L24.4964394,14.6355947 L21.6245041,16.4341366 L19.4813523,14.5345604 L16.0055599,16.7112634 L16.8010824,19.4548453 L14.0469583,21.1795875 L10.9133147,8.38555643 L14.2197946,6.31486949 Z M60.8972873,7.42498183 C64.0357236,9.56184222 64.5977558,12.9536917 62.3330965,16.234907 C60.0683686,19.5161223 56.6853379,20.2114688 53.546833,18.0746084 C50.4011947,15.9328431 49.834224,12.5481467 52.0989518,9.26693137 C54.3636111,5.98571606 57.7587824,5.28812145 60.8972873,7.42498183 Z M54.7849638,11.0957329 C53.4359904,13.0501559 53.5345553,14.9417001 55.0139882,15.9489886 C56.4862877,16.9513721 58.3052446,16.3654335 59.654218,14.4110104 C61.0081299,12.4494343 60.9024316,10.5530533 59.4302007,9.55060168 C57.9579012,8.54821817 56.1388757,9.13415677 54.7849638,11.0957329 Z M34.1560693,0.0681108495 L36.6374067,12.3020402 L34.1618996,12.7974414 L27.4557178,6.66678368 L27.38747,6.68040858 L28.843925,13.8614094 L25.8732616,14.4557955 L23.3919929,2.22179798 L25.8930157,1.72135559 L32.5599636,7.78933877 L32.6282114,7.77564575 L31.1854745,0.662496888 L34.1560693,0.0681108495 Z M13.9626213,9.60512316 L13.9037512,9.64199016 L15.3016895,14.4523386 L17.7244843,12.9351117 L13.9626213,9.60512316 Z M39.8931948,0.071864508 L44.9009335,1.04645324 C48.6267806,1.77163827 50.3907964,4.34469966 49.6205228,8.24898141 C48.8485344,12.1617106 46.2018249,14.0174213 42.4845516,13.2939394 L37.4768129,12.3192825 L39.8931948,0.071864508 Z M42.5337311,3.19455416 L41.1086907,10.4173834 L42.5700156,10.7018031 C44.6123725,11.0993094 45.9489995,10.0814616 46.4313293,7.63708738 C46.8851254,5.33700076 45.9776018,3.86476274 43.9950561,3.47890572 L42.5337311,3.19455416 Z" id="Combined-Shape" stroke="#FFFFFF" stroke-width="0.699999988" fill="#FFFFFF"></path>
                                                <g id="Group-10" transform="translate(37.457271, 0.012467)"></g>
                                            </g>
                                            <path d="M4.14864274,51.7474859 C4.42617863,51.4676577 5.10019331,50.9779595 6.1706877,50.2783895 C7.24118209,49.5788195 8.65859565,48.8692563 10.4229293,48.1496989 C12.1872629,47.4301414 14.2985158,46.7905345 16.7566878,46.2308791 C19.2148598,45.6712236 21.9902159,45.3913954 25.0827552,45.3913954 C27.6202237,45.3913954 29.8603317,45.6012663 31.8030811,46.0210082 C33.7458305,46.44075 35.381308,47.0004055 36.7095137,47.6999755 C38.0377194,48.3995455 39.0586542,49.2190408 39.7723171,50.1584633 C40.48598,51.0978858 40.9022834,52.1072646 41.0212272,53.1866007 C41.140171,54.5857399 40.7932519,56.0648304 39.9804688,57.6238715 C39.1676857,59.1829125 38.0773677,60.7219662 36.7095137,62.2410315 C35.3416598,63.7600969 33.8251261,65.1992117 32.1599126,66.558376 C30.4946991,67.9175403 28.8691338,69.1168027 27.2832159,70.1561631 C26.0144821,70.9956467 24.7457474,71.7451857 23.4770136,72.40478 C22.2082799,73.0643743 21.0188416,73.6340239 19.908699,74.1137289 C18.7985564,74.5934338 17.8073585,74.9632067 16.9351035,75.2230465 C16.0628485,75.4828864 15.3888338,75.6128068 14.9130585,75.6128068 C14.397635,75.6527825 13.9020361,75.4329174 13.4262608,74.9532125 C13.2280214,74.7533358 13.059517,74.5434648 12.9207495,74.3235998 C12.781982,74.1037347 12.6927742,73.8938638 12.6531259,73.693987 L12.1773507,74.8332863 C10.6707292,78.5909753 9.48129102,81.7090574 8.60903603,84.1875326 C7.73678104,86.6660079 7.300654,88.3249878 7.300654,89.1644714 C7.300654,89.6042006 7.19162246,89.8840288 6.97355849,90.0039551 C6.75549452,90.1238813 6.48787092,90.1038939 6.1706877,89.943992 C5.81385624,89.7441152 5.47684844,89.4143181 5.15966522,88.9546005 C4.842482,88.494883 4.70371361,87.9252334 4.74336185,87.2456517 C4.78301009,86.6460205 4.98124949,85.8065368 5.33808095,84.7272007 C5.69491242,83.6478646 6.14095174,82.4186207 6.67619894,81.039469 C7.21144613,79.6603173 7.80616524,78.1912209 8.46035625,76.6321798 C9.11454727,75.0731387 9.73900233,73.5140977 10.3337214,71.9550566 C11.1266799,70.0362368 11.9989349,67.9775034 12.9504855,65.7788555 C13.9020361,63.5802075 14.8139384,61.5014867 15.6861934,59.5426912 C16.5584484,57.5838957 17.3018472,55.884941 17.91639,54.4458262 C18.5309328,53.0067114 18.8976765,52.0672889 19.0166204,51.6275597 C19.1355642,51.1478547 19.3635395,50.9979469 19.7005473,51.1778363 C20.0375551,51.3577257 20.3448261,51.6675354 20.6223619,52.1072646 C20.8206013,52.4270676 20.9891057,52.7868463 21.1278732,53.1866007 C21.2666407,53.5863552 21.276553,53.9261456 21.1576091,54.2059737 C20.9990171,54.645703 20.6719216,55.4052361 20.1763226,56.4845722 C19.6807237,57.5639083 19.06618,58.9030843 18.3326934,60.5021011 C17.5992068,62.1011179 16.7864237,63.929993 15.8943451,65.9887264 C15.0022664,68.0474598 14.0606281,70.2760893 13.0694293,72.674614 C13.1487249,72.5946635 13.2676687,72.5546878 13.4262608,72.5546878 C13.8623878,72.5147121 14.4571069,72.4247674 15.2104181,72.2848538 C15.9637293,72.1449401 16.8954552,71.8651119 18.0055979,71.4453701 C19.1157405,71.0256283 20.4241225,70.4359913 21.930744,69.6764581 C23.4373654,68.916925 25.1620508,67.897552 27.1048002,66.6183391 C28.8096619,65.4990273 30.4054912,64.2797775 31.892289,62.9605889 C33.3790867,61.6414004 34.6478205,60.3222118 35.6984912,59.0030232 C36.749162,57.6838346 37.5222968,56.4445965 38.0178957,55.2853099 C38.5134947,54.1260232 38.6225271,53.1266376 38.3449913,52.287154 C38.0674554,51.4476703 37.4231766,50.7381071 36.4121542,50.1584633 C35.4011317,49.5788195 34.1720452,49.1191029 32.7248957,48.7793116 C31.2777462,48.4395203 29.681916,48.2296494 27.9374069,48.1496989 C26.1928979,48.0697483 24.4483879,48.1097231 22.7038788,48.2696251 C20.7214821,48.4695018 18.7787327,48.8192873 16.8756316,49.3189796 C14.9725304,49.818672 13.247845,50.3783284 11.7015754,50.9979469 C10.1553057,51.6175655 8.87665962,52.2471783 7.86563715,52.8867852 C6.85461467,53.5263921 6.24998328,54.0460718 6.05174388,54.4458262 C5.85350448,54.8056049 5.60570455,54.9255312 5.308345,54.8056049 C5.01098545,54.6856787 4.72353818,54.4658136 4.4460023,54.1460106 C4.16846641,53.7862319 3.97022701,53.3764843 3.85128319,52.9167667 C3.73233937,52.4570492 3.83145952,52.0672889 4.14864274,51.7474859 Z M29.8087403,80.5824086 C30.044776,80.4241519 30.3889945,79.9790556 30.8413966,79.2471198 C31.2937987,78.515184 31.8052088,77.6645549 32.3756288,76.6952344 C32.9460488,75.7259139 33.5263029,74.6972463 34.1163923,73.6092334 L35.7096334,70.6715979 C36.063687,70.0385718 36.5357584,69.227508 37.1258477,68.2384049 C37.715937,67.2493017 38.2961912,66.2601994 38.8666112,65.2710963 C39.4370312,64.2819931 39.9386071,63.4016919 40.3713389,62.6301916 C40.8040708,61.8586914 41.0597768,61.3542489 41.138455,61.1168642 C41.2171333,60.919044 41.3744908,60.8300247 41.6105265,60.8498065 C41.8465622,60.8695882 42.1022673,60.9783901 42.3776426,61.1762104 C42.6530179,61.3740307 42.8792185,61.5916336 43.0562453,61.8290183 C43.2332721,62.066403 43.2627766,62.3235694 43.1447587,62.6005185 C42.9480626,63.1148523 42.7513655,63.5104929 42.5546694,63.787442 C42.3579733,64.0643911 42.2596247,64.4204681 42.2596247,64.8556731 C42.2596247,64.934801 42.3776426,65.0040385 42.6136783,65.0633847 C42.849714,65.1227309 43.1250894,65.182077 43.4398034,65.2414232 C43.7545174,65.3007694 44.0987367,65.3700069 44.4724597,65.4491348 C44.8461826,65.5282627 45.1510624,65.6271733 45.3870981,65.7458657 C45.6624734,65.864558 45.8690047,66.0129234 46.0066919,66.1909619 C46.1443791,66.3690005 46.2525627,66.5569303 46.331241,66.7547506 C46.4885984,67.1899555 46.4787633,67.6350518 46.3017365,68.0900394 C46.1247097,68.5450271 45.9378478,68.9901234 45.7411517,69.4253283 C45.5444555,69.7418409 45.2395758,70.3550853 44.8265132,71.2650596 C44.4134507,72.175034 43.9708837,73.1839189 43.4988123,74.2917144 C43.1447587,75.1225608 42.7907051,75.9830803 42.4366515,76.8732729 C42.0825979,77.7634655 41.7973884,78.5745301 41.581022,79.3064659 C41.3646557,80.0384018 41.2269684,80.6615366 41.1679595,81.1758704 C41.1089506,81.6902042 41.1777946,82.0067168 41.3744908,82.1254091 C41.6105265,82.2836659 41.9449107,82.2539928 42.3776426,82.0363899 C42.8103745,81.8187869 43.292281,81.4726012 43.8233614,80.9978318 C44.3544418,80.5230625 44.9248618,79.9592738 45.5346204,79.3064659 C46.1443791,78.6536581 46.7639728,77.9513953 47.3934017,77.1996768 C48.0228306,76.4479584 48.6424244,75.6665677 49.2521831,74.8555031 C49.8619417,74.0444384 50.4126923,73.2927208 50.9044331,72.6003485 C51.3961739,71.9079762 51.8289067,71.2947327 52.2026296,70.7606172 C52.5763526,70.2265016 52.8222234,69.8209698 52.9402413,69.5440207 C53.1369374,69.1483792 53.3729731,69.0099051 53.6483484,69.1285975 C53.9237237,69.2472898 54.1204199,69.5044562 54.2384377,69.9000977 C54.317116,70.1770468 54.3466205,70.4836681 54.3269511,70.8199634 C54.3072818,71.1562586 54.1990982,71.5024443 54.002402,71.8585214 C53.5303306,72.6498034 52.8812323,73.6883614 52.0551073,74.9741954 C51.2289823,76.2600294 50.3045087,77.5557539 49.2816875,78.8613697 C48.4949021,79.8900363 47.6589419,80.8494664 46.773808,81.739659 C45.888674,82.6298516 45.0133752,83.3123326 44.1479105,83.7871019 C43.164428,84.3409992 42.2989643,84.5388204 41.5515176,84.3805636 C40.8040708,84.2223069 40.1746428,83.8464481 39.6632318,83.2529864 C39.2304999,82.6990891 38.915785,82.0462812 38.7190889,81.2945627 C38.5223927,80.5428442 38.5223927,79.7317805 38.7190889,78.8613697 C38.915785,77.9513953 39.1813252,77.0414201 39.5157094,76.1314457 C39.8500937,75.2214714 40.2336517,74.3312788 40.6663836,73.460868 C41.2564729,72.1948166 41.8170578,71.057348 42.3481381,70.0484631 C42.8792185,69.0395782 43.1840983,68.3175328 43.2627766,67.8823278 C43.3021162,67.6053787 43.2037676,67.4075585 42.9677319,67.2888661 C42.7316962,67.1701738 42.4563209,67.0712632 42.1416069,66.9921353 C41.7482137,66.9130073 41.3154818,66.8932247 40.8434104,66.9327891 C40.7647321,67.0514814 40.5680351,67.3877767 40.2533211,67.941674 C39.9386071,68.4955713 39.5747184,69.1187061 39.1616559,69.8110784 C38.7485933,70.5034507 38.3453659,71.2057135 37.9519728,71.9178675 C37.5585796,72.6300216 37.2438656,73.1839189 37.0078299,73.5795604 C36.5357584,74.3708423 36.0735221,75.1917983 35.62112,76.0424265 C35.1687179,76.8930547 34.7163167,77.6843375 34.2639146,78.4162734 C33.8115125,79.1482092 33.3886157,79.8010171 32.9952226,80.374697 C32.6018294,80.948377 32.267446,81.3341271 31.9920707,81.5319474 C31.5593389,81.8088965 31.1659457,81.9473706 30.8118921,81.9473706 C30.4578385,81.9473706 30.1627939,81.8781331 29.9267581,81.739659 C29.6907224,81.6011849 29.5530352,81.4231464 29.5136956,81.2055434 C29.474356,80.9879405 29.5727046,80.7802289 29.8087403,80.5824086 Z M68.3691363,64.2044913 C68.7724834,64.3219738 69.1556625,64.5569387 69.5186746,64.9093861 C69.8816867,65.2618335 70.1841967,65.6730221 70.4262048,66.1429519 C70.6682129,66.6128818 70.8295519,67.1219727 70.9102209,67.6702239 C70.99089,68.2184751 70.9505559,68.7667272 70.7892169,69.3149783 C70.5068739,70.1373556 70.0934437,71.1163764 69.5489256,72.2520398 C69.0044074,73.3877033 68.4498053,74.4842066 67.8851202,75.5415487 C67.199431,76.7946947 66.4935738,78.0674216 65.7675496,79.3597287 C66.4532388,78.4590301 67.179263,77.5191704 67.9456222,76.5401496 C68.6313114,75.7177724 69.3875866,74.7974928 70.2144478,73.7793118 C71.0413089,72.7611308 71.9185882,71.7429489 72.8462854,70.7247679 C74.1773298,69.2758172 75.5083741,68.0030912 76.8394185,66.9065879 C78.1704628,65.8100846 79.2998341,65.1639311 80.2275313,64.9681273 C80.5905434,64.889806 80.9737225,64.9779178 81.3770696,65.2324629 C81.7804167,65.4870079 82.1434288,65.8492458 82.4661059,66.3191756 C82.990457,67.0632315 83.1921301,67.9051888 83.0711261,68.8450485 C82.990457,69.5499433 82.788783,70.3331594 82.4661059,71.1946977 C82.1434288,72.056236 81.7804167,72.9373545 81.3770696,73.838053 C80.9333885,74.8562341 80.5098744,75.8156748 80.1065273,76.7163733 C79.7031802,77.6170719 79.4006701,78.4002889 79.1989971,79.0660225 C79.8846863,78.2044842 80.8123845,77.1275619 81.9820898,75.8352549 C83.1517951,74.5429478 84.3618354,73.2506407 85.6122107,71.9583337 C86.9029201,70.6660266 88.1129604,69.4814115 89.2423316,68.4044893 C90.3717029,67.327567 91.2792331,66.6128818 91.9649223,66.2604344 C92.2875994,66.0646306 92.6405285,66.03526 93.0237076,66.1723225 C93.4068867,66.3093851 93.7396478,66.5149794 94.0219909,66.7891054 C94.3043339,67.0632315 94.495923,67.3569376 94.59676,67.6702239 C94.697597,67.9835102 94.667346,68.2380561 94.506007,68.4338599 C94.344668,68.6296637 94.1329109,68.9723215 93.8707358,69.4618314 C93.6085607,69.9513414 93.3262177,70.5191736 93.0237076,71.1653271 C92.7211975,71.8114806 92.4086035,72.5163754 92.0859264,73.2800114 C91.7632493,74.0436474 91.4607392,74.8170738 91.1783961,75.6002899 C90.855719,76.4226672 90.58346,77.2352539 90.3616189,78.038051 C90.1397779,78.8408481 89.9885229,79.5555325 89.9078538,80.1821059 C89.8271848,80.8086793 89.8271848,81.3177694 89.9078538,81.7093779 C89.9885229,82.1009864 90.2103639,82.3163703 90.573376,82.3555314 C90.815384,82.3946925 91.1683122,82.2576291 91.6321613,81.9443428 C92.0960103,81.6310565 92.6102775,81.2002869 93.1749627,80.6520357 C93.7396478,80.1037845 94.354752,79.4772111 95.0202741,78.7723164 C95.6857963,78.0674216 96.3412345,77.3233657 96.9865896,76.5401496 C97.9949569,75.365325 98.9327381,74.1905004 99.7999334,73.0156758 C100.667129,71.8408512 101.322568,70.9009915 101.766249,70.1960968 C102.048592,69.7653281 102.320851,69.5793139 102.583026,69.6380551 C102.845201,69.6967963 103.056958,69.8828105 103.218297,70.1960968 C103.50064,70.744348 103.460305,71.3709214 103.097293,72.0758161 C102.855285,72.545746 102.361185,73.3583327 101.614994,74.5135772 C100.868803,75.6688217 99.9713554,76.892597 98.9226541,78.1849041 C97.9142869,79.43805 96.8655856,80.603085 95.7765493,81.6800073 C94.687513,82.7569295 93.6388117,83.5499361 92.6304445,84.0590271 C92.0657593,84.3331531 91.5111572,84.4506356 90.9666391,84.4114744 C90.4221209,84.3723133 89.9078538,84.2058801 89.4238377,83.912174 C88.9398216,83.6184678 88.5163075,83.2268593 88.1532954,82.7373494 C87.7902833,82.2478394 87.5482752,81.7093779 87.4272712,81.1219656 C87.2255981,80.221267 87.2558491,79.183505 87.5180242,78.0086804 C87.7801993,76.8338558 88.1331283,75.6981923 88.5768095,74.601689 C89.0608256,73.309382 89.6456787,72.0170749 90.3313679,70.7247679 C89.8876868,71.1946977 89.4238377,71.6842076 88.9398216,72.1932986 C88.4961404,72.6240673 87.9919563,73.1331583 87.4272712,73.7205706 C86.862586,74.3079829 86.2777329,74.9345563 85.6727127,75.6002899 C84.9870235,76.3443458 84.2811664,77.0981913 83.5551422,77.8618273 C82.829118,78.6254633 82.1434288,79.3597287 81.4980737,80.0646234 C80.8527185,80.7695182 80.2779494,81.4058812 79.7737662,81.9737134 C79.2695831,82.5415456 78.896487,82.9821048 78.6544789,83.2953911 C78.4124709,83.6086773 78.1301278,83.7261598 77.8074507,83.6478385 C77.4847736,83.5695171 77.1822635,83.3737124 76.8999205,83.0604262 C76.2949003,82.3946925 75.9520553,81.6897978 75.8713862,80.9457419 C75.8310512,80.710777 75.8915532,80.3485391 76.0528923,79.8590291 C76.2142313,79.3695192 76.4159043,78.7821069 76.6579124,78.0967922 C76.8999205,77.4114776 77.1923466,76.6772122 77.5351916,75.8939961 C77.8780367,75.11078 78.2107978,74.327563 78.5334749,73.5443469 C78.8158179,72.8394521 79.088077,72.1737185 79.3502521,71.5471451 C79.6124272,70.9205717 79.8443522,70.3527404 80.0460253,69.8436494 C80.2476984,69.3345584 80.3888703,68.9233698 80.4695394,68.6100836 C80.5502084,68.2967973 80.5502084,68.1205736 80.4695394,68.0814125 C80.3082004,67.96393 80.0056903,68.0422514 79.5620092,68.3163774 C79.118328,68.5905035 78.5939769,68.9919016 77.9889568,69.5205726 C77.3839366,70.0492437 76.7184144,70.6856067 75.9923902,71.4296626 C75.2663661,72.1737185 74.5201748,72.9765147 73.7538157,73.838053 C72.8261184,74.8953952 71.8984202,75.9723174 70.970723,77.0688207 C70.0430257,78.165324 69.1959975,79.2030851 68.4296383,80.1821059 C67.6632791,81.1611267 67.0179249,82.0324546 66.4935738,82.7960906 C65.9692227,83.5597266 65.6465456,84.0981882 65.5255416,84.4114744 C65.3238685,84.9597256 64.9810234,85.1457398 64.4970073,84.9695161 C64.0129912,84.7932924 63.5491421,84.4702157 63.1054609,84.0002858 C62.7827838,83.6086773 62.5004408,83.1779086 62.2584327,82.7079788 C62.0164247,82.2380489 61.9357556,81.8268603 62.0164247,81.4744129 C62.0567596,81.2002869 62.2685167,80.6618262 62.6516958,79.8590291 C63.0348749,79.056232 63.4886401,78.1359533 64.0129912,77.0981913 C64.5373423,76.0604293 65.0919435,74.9639269 65.6767966,73.8086824 C66.2616497,72.6534379 66.7960839,71.5667252 67.2801,70.5485442 C67.7641161,69.5303631 68.1372122,68.6394542 68.3993873,67.8758182 C68.6615624,67.1121822 68.7523154,66.5933016 68.6716464,66.3191756 C68.5506423,66.0450496 68.1977142,65.9569377 67.6128611,66.0548401 C67.028008,66.1527424 66.3423188,66.3387557 65.5557926,66.6128818 C64.7692664,66.8870078 63.9726562,67.2002941 63.1659629,67.5527414 C62.3592697,67.9051888 61.6735796,68.198895 61.1088944,68.4338599 C61.1088944,68.5513423 61.1290615,68.6296637 61.1693964,68.6688248 C61.2904005,69.2562371 61.3307355,69.8632295 61.2904005,70.4898029 C61.2500655,71.1163764 61.0988104,71.78211 60.8366353,72.4870048 C60.5744603,73.1918995 60.1912802,73.9751156 59.6870971,74.836654 C59.1829139,75.6981923 58.5476427,76.6772122 57.7812836,77.7737155 C56.3292352,79.8492386 55.0385258,81.34714 53.9091546,82.2674196 C52.7797833,83.1876991 51.892421,83.804482 51.2470659,84.1177683 C50.9243888,84.2744119 50.5412087,84.3135721 50.0975276,84.2352508 C49.6538465,84.1569294 49.2000813,83.9807057 48.7362322,83.7065797 C48.2723831,83.4324537 47.848869,83.0897968 47.4656899,82.6786082 C47.0825108,82.2674196 46.7699167,81.7876992 46.5279087,81.239448 C46.2052316,80.4562319 46.2253986,79.3107779 46.5884107,77.8030861 C46.9514228,76.2953942 47.717782,74.5037867 48.8874873,72.4282635 C50.2185316,70.0786143 51.549576,68.2870068 52.8806203,67.053441 C54.2116646,65.8198752 55.320868,65.1835121 56.2082312,65.144351 C56.8132513,65.144351 57.3678534,65.3009946 57.8720366,65.6142808 C58.3762197,65.9275671 58.6686468,66.2408543 58.7493158,66.5541405 C59.394671,66.3191756 60.1106112,66.015679 60.8971374,65.6436515 C61.6836636,65.271624 62.5004408,64.9387567 63.347469,64.6450506 C64.1944972,64.3513444 65.0516094,64.1359596 65.9188047,63.998897 C66.7859999,63.8618344 67.6027771,63.9303657 68.3691363,64.2044913 Z M52.3220949,73.2782536 C50.8857885,75.6509493 50.0240046,77.6013864 49.7367429,79.1295632 C49.4494813,80.65774 49.5931122,81.6229045 50.1676349,82.0250567 C50.3728213,82.1457022 50.6908609,82.0753253 51.1217529,81.8139269 C51.5526449,81.5525285 52.0450929,81.1403222 52.5990969,80.5773099 C53.1531008,80.0142976 53.7378828,79.350747 54.3534428,78.5866582 C54.9690028,77.8225693 55.5640444,76.9981586 56.1385668,76.1134242 C57.0003507,74.8265385 57.7595411,73.4994374 58.4161387,72.1321207 C59.0727363,70.7648041 59.4420723,69.598564 59.5241467,68.6333995 C58.990661,68.5529694 58.5700287,68.3720011 58.2622487,68.0904945 C57.9544687,67.8089879 57.8826531,67.507374 58.0468027,67.1856528 C57.0208691,67.507374 56.0154548,68.2513555 55.0305588,69.4175956 C54.0456628,70.5838357 53.1428412,71.8707223 52.3220949,73.2782536 Z M104.642348,55.368208 C105.026421,55.1287139 105.525716,55.0329155 106.140233,55.0808147 C106.75475,55.1287139 107.33086,55.3442589 107.868562,55.7274496 C108.406264,56.0627421 108.771134,56.5297562 108.963171,57.1284918 C109.155207,57.7272274 109.059189,58.1702925 108.675116,58.4576857 C108.48308,58.6013824 108.22383,58.6971798 107.897368,58.745079 C107.570905,58.7929778 107.215638,58.8049522 106.831565,58.7810032 C106.447491,58.7570541 106.07302,58.6971798 105.708151,58.6013824 C105.343281,58.505585 105.045624,58.3858374 104.81518,58.2421408 C104.354293,57.9547475 104.114247,57.4637843 104.095043,56.7692502 C104.07584,56.0747161 104.258274,55.607702 104.642348,55.368208 Z M104.229029,68.2760316 C104.106473,68.5103533 103.902213,68.9204162 103.616249,69.5062205 C103.330285,70.0920247 103.003469,70.7852261 102.635801,71.5858256 C102.268133,72.386425 101.890252,73.245604 101.502158,74.1633643 C101.114065,75.0811246 100.777036,75.9891212 100.491071,76.8873541 C100.0417,78.2151773 99.7250966,79.3867859 99.5412626,80.4021796 C99.3574286,81.4175733 99.4901979,82.0424315 99.9395695,82.2767532 C100.225534,82.432968 100.623841,82.3743875 101.13449,82.1010119 C101.64514,81.8276363 102.217069,81.4078105 102.850274,80.8415328 C103.48348,80.275255 104.147325,79.6113438 104.841809,78.8497983 C105.536293,78.0882528 106.230777,77.2974171 106.925261,76.4772911 C108.028265,75.1104148 109.008713,73.8314083 109.866605,72.6402732 C110.724497,71.4491382 111.255573,70.6387751 111.459832,70.2091856 C111.623241,69.896757 111.8275,69.7795961 112.072612,69.857703 C112.317724,69.93581 112.542411,70.1310787 112.74667,70.4435073 C113.032635,70.9512046 113.073486,71.4393745 112.869226,71.9080179 C112.664967,72.3766613 112.184955,73.1967873 111.429193,74.3683958 C110.673432,75.5400043 109.784901,76.7701932 108.763601,78.0589626 C108.191673,78.8400346 107.589106,79.5918173 106.9559,80.314309 C106.322694,81.0368006 105.689488,81.6909489 105.056282,82.2767532 C104.423076,82.8625575 103.810297,83.3409646 103.217942,83.7119736 C102.625588,84.0829827 102.063874,84.3075416 101.532797,84.3856485 C100.266385,84.5418633 99.2042336,84.1903807 98.3463417,83.3312009 C97.7335618,82.7063427 97.3046158,81.9155069 97.0595038,80.9586936 C96.8143918,80.0018803 96.7939662,79.0157759 96.9982258,78.0003822 C97.2024855,77.0630954 97.4884498,76.0867546 97.8561177,75.0713609 C98.2237857,74.0559672 98.632306,73.0796264 99.0816776,72.1423396 C99.6536053,70.8145164 100.215321,69.6136176 100.766822,68.5396435 C101.318324,67.4656693 101.696206,66.7138866 101.900465,66.2842971 C101.982169,66.0109215 102.145577,65.8547076 102.390689,65.8156537 C102.635801,65.7765998 102.901339,65.8156537 103.187303,65.9328145 C103.595824,66.1280823 103.932852,66.4405119 104.19839,66.8701014 C104.463928,67.2996908 104.474141,67.7683342 104.229029,68.2760316 Z M115.171002,78.4371606 C115.608716,78.2391579 116.324974,77.9322531 117.319778,77.516447 C118.314582,77.1006409 119.508347,76.5363325 120.901072,75.823522 L121.080136,74.9919097 C121.318889,73.7246914 121.61733,72.6158747 121.97546,71.6654607 C122.333589,70.7150467 122.731511,69.8636344 123.169224,69.111223 C124.044651,67.6064011 124.949922,66.5371853 125.885038,65.9035757 C126.820154,65.269966 127.54636,64.8541599 128.063658,64.6561573 C128.342203,64.5769564 128.760021,64.5571555 129.317111,64.5967564 C129.8742,64.6363573 130.431291,64.794759 130.988381,65.0719634 C131.54547,65.3491678 132.00308,65.7847739 132.36121,66.3787827 C132.719339,66.9727914 132.838716,67.7648028 132.719339,68.7548177 C132.639755,69.5072291 132.251782,70.3190405 131.555419,71.1902537 C130.859056,72.0614668 129.794616,73.0118808 128.362099,74.0414957 C127.725424,74.5167027 127.009166,75.0117097 126.213323,75.5265176 C125.417481,76.0413255 124.522157,76.5759334 123.527353,77.1303413 L123.467665,77.1897422 C123.228912,79.4073746 123.447769,81.3874044 124.124235,83.1298298 C124.402781,83.8426403 124.741013,84.4663495 125.138935,85.0009574 C125.536857,85.5355653 125.994466,85.921671 126.511764,86.1592745 C126.79031,86.2780762 126.879842,86.4364789 126.780361,86.6344815 C126.680881,86.8324841 126.491868,87.0106867 126.213323,87.1690894 C125.934778,87.327492 125.636337,87.4264929 125.318,87.4660938 C124.999663,87.5056946 124.701222,87.4264929 124.422677,87.2284903 C123.984963,86.9512859 123.537302,86.5255802 123.079692,85.9513714 C122.622082,85.3771626 122.194317,84.6742526 121.796395,83.8426403 C121.478058,83.1694307 121.219408,82.3972193 121.020448,81.5260061 C120.821488,80.654793 120.722007,79.684579 120.722007,78.6153632 C119.926164,79.0509693 119.120373,79.4469755 118.304634,79.8033807 C117.488895,80.159786 116.643312,80.4963912 115.767885,80.8131956 C115.807677,81.1696009 115.817625,81.5359066 115.797729,81.9121118 C115.777833,82.2883171 115.728092,82.6744228 115.648508,83.0704289 C115.449548,83.8624403 115.13121,84.5356508 114.693497,85.0900587 C114.255783,85.6444666 113.738485,86.0998736 113.141603,86.4562789 C112.34576,86.9314859 111.460385,87.2284903 110.485477,87.347292 C109.51057,87.4660938 108.585403,87.4462938 107.709975,87.2878911 C106.953924,87.0898885 106.357042,86.6146815 105.919328,85.8622701 C105.720368,85.5058648 105.581095,85.1197591 105.501511,84.703953 C105.421927,84.2881469 105.441823,83.9020412 105.561199,83.5456359 C105.640783,83.2288316 106.068549,82.8724263 106.844496,82.4764202 C107.620443,82.080414 108.585403,81.605207 109.739374,81.0507991 C110.296464,80.8131956 110.863502,80.5656917 111.440489,80.3082882 C112.017475,80.0508847 112.604409,79.7637798 113.201291,79.4469755 C113.002331,78.8529667 112.763578,78.2688584 112.485033,77.6946496 C112.206487,77.1204408 111.93789,76.5165325 111.679242,75.8829229 C111.420593,75.2493132 111.211684,74.5761036 111.052515,73.8632931 C110.893346,73.1504826 110.853555,72.3782712 110.933139,71.5466589 C111.012723,70.6358458 111.350956,69.6755313 111.947839,68.6657164 C112.544721,67.6559015 113.241084,66.6955871 114.036926,65.7847739 C114.753185,64.9927625 115.489339,64.319552 116.24539,63.7651441 C117.001442,63.2107363 117.677908,62.854331 118.27479,62.6959284 C118.632919,62.6167275 118.9811,62.6365275 119.319334,62.7553292 C119.657567,62.874131 119.94606,63.0325336 120.184813,63.2305362 C120.622526,63.6265424 120.871227,64.0621485 120.930916,64.5373555 C120.990604,65.0125625 120.741903,65.2897669 120.184813,65.3689678 C119.627723,65.4481687 118.971153,65.745173 118.215102,66.2599809 C117.459051,66.7747888 116.722896,67.3885976 116.006638,68.1014081 C115.290379,68.8142186 114.673601,69.56663 114.156303,70.3586414 C113.639005,71.1506528 113.36046,71.8436633 113.320668,72.4376721 C113.241084,73.427687 113.420148,74.4078014 113.857862,75.3780154 C114.295575,76.3482295 114.733289,77.3679448 115.171002,78.4371606 Z M124.542934,72.970174 C124.786222,72.8492997 125.080196,72.657915 125.424855,72.3960209 C125.769514,72.1341269 126.144583,71.8520865 126.550064,71.5499007 C126.955545,71.2477149 127.350888,70.9253837 127.736095,70.5829061 C128.121301,70.2404285 128.455823,69.9281705 128.73966,69.6461301 C129.550621,68.8403016 130.138568,68.0747639 130.503501,67.349518 C130.868434,66.624272 130.827885,66.0803376 130.381857,65.7177146 C129.935828,65.3550916 129.347881,65.4961114 128.618016,66.1407747 C127.88815,66.7854381 127.138011,67.7725781 126.367597,69.1021956 C126.08376,69.5454012 125.789787,70.0792634 125.485677,70.7037804 C125.181566,71.3282975 124.867318,72.083762 124.542934,72.970174 Z M112.947363,80.7303403 C112.304578,81.0698625 111.691924,81.3669451 111.109399,81.621587 C110.526874,81.8762289 109.974481,82.1308708 109.452218,82.3855127 C108.769259,82.7250349 108.206821,83.0327279 107.764906,83.3085896 C107.322992,83.5844514 107.021686,83.8709235 106.860989,84.1680061 L106.740467,84.3589875 C107.061859,84.4863084 107.644384,84.4863084 108.48804,84.3589875 C109.331696,84.2316665 110.135177,83.934584 110.898485,83.4677408 C111.420748,83.1706583 111.862663,82.7993058 112.22423,82.3536825 C112.585797,81.9080591 112.826841,81.3669451 112.947363,80.7303403 Z" id="Prois" fill="#FFFFFF" fill-rule="nonzero" transform="translate(68.283365, 67.736223) rotate(-26.000000) translate(-68.283365, -67.736223) "></path>
                                        </g>
                                    </g>
                                </g>
                            </g>
                        </g>
                    </g>
                </g>
            </g>
        </g>
    </g>
</svg>