<?xml version="1.0" encoding="UTF-8" standalone="no"?>
<svg width="427px" height="214px" viewBox="0 0 427 214" version="1.1" xmlns="http://www.w3.org/2000/svg" xmlns:xlink="http://www.w3.org/1999/xlink">
    <!-- Generator: Sketch 39 (31667) - http://www.bohemiancoding.com/sketch -->
    <title>link</title>
    <desc>Created with Sketch.</desc>
    <defs></defs>
    <g id="Page-1" stroke="none" stroke-width="1" fill="none" fill-rule="evenodd">
        <g id="link" fill="#7A7A7A">
            <g id="Group">
                <path d="M40.533,107.333 C40.533,70.853 70.186,41.2 106.666,41.2 L192,41.2 L192,0.667 L106.667,0.667 C47.787,0.667 0,48.453 0,107.333 C0,166.213 47.787,214 106.667,214 L192,214 L192,173.467 L106.667,173.467 C70.187,173.467 40.533,143.813 40.533,107.333 L40.533,107.333 Z" id="Shape"></path>
                <rect id="Rectangle-path" x="128" y="86" width="170.667" height="42.667"></rect>
                <path d="M320,0.667 L234.667,0.667 L234.667,41.2 L320,41.2 C356.48,41.2 386.133,70.853 386.133,107.333 C386.133,143.813 356.48,173.467 320,173.467 L234.667,173.467 L234.667,214 L320,214 C378.88,214 426.667,166.213 426.667,107.333 C426.667,48.453 378.88,0.667 320,0.667 L320,0.667 Z" id="Shape"></path>
            </g>
        </g>
    </g>
</svg>