<?xml version="1.0" encoding="UTF-8"?>
<svg width="370px" height="243px" viewBox="0 0 370 243" version="1.1" xmlns="http://www.w3.org/2000/svg" xmlns:xlink="http://www.w3.org/1999/xlink">
    <!-- Generator: Sketch 60.1 (88133) - https://sketch.com -->
    <title>Combined Shape Copy 3</title>
    <desc>Created with Sketch.</desc>
    <defs>
        <rect id="path-1" x="0.11538323" y="0.112175931" width="391" height="282"></rect>
        <linearGradient x1="5.49211955%" y1="89.5468322%" x2="96.1752132%" y2="28.741404%" id="linearGradient-3">
            <stop stop-color="#EFEFF4" offset="0%"></stop>
            <stop stop-color="#FFFFFF" offset="100%"></stop>
        </linearGradient>
        <filter x="-0.0%" y="28.7%" width="99.7%" height="71.3%" filterUnits="objectBoundingBox" id="filter-4">
            <feGaussianBlur stdDeviation="0" in="SourceGraphic"></feGaussianBlur>
        </filter>
    </defs>
    <g id="Page-1" stroke="none" stroke-width="1" fill="none" fill-rule="evenodd">
        <g id="Subscribe" transform="translate(-1070.000000, -720.000000)">
            <g id="Group-17" transform="translate(-2.000000, 720.000000)">
                <g id="Combined-Shape-Copy-3" transform="translate(1051.000000, 0.000000)">
                    <mask id="mask-2" fill="white">
                        <use xlink:href="#path-1"></use>
                    </mask>
                    <g id="Mask"></g>
                    <path d="M175.60051,-11.5988234 C166.446667,59.9269277 129.894848,106.486434 65.9450527,128.079697 C-24.6483509,158.66943 -24.6483509,175.262865 65.9450527,177.860003 C191.1365,161.586976 261.867104,105.045175 278.136864,8.23459896 M357.022543,28.6688578 C353.69485,114.485816 316.460087,169.405156 245.318255,193.426879 C154.724852,224.016612 154.724852,240.610047 245.318255,243.207185 C370.509703,226.934159 441.240306,170.392357 457.510066,73.5817814 C458.014346,70.5811443 458.469256,67.6343689 458.874796,64.7414549" fill="url(#linearGradient-3)" opacity="0.986979167" filter="url(#filter-4)" mask="url(#mask-2)" transform="translate(229.045892, 64.603593) rotate(-11.000000) translate(-229.045892, -64.603593) "></path>
                </g>
            </g>
        </g>
    </g>
</svg>