<?xml version="1.0" encoding="UTF-8"?>
<svg width="367px" height="397px" viewBox="0 0 367 397" version="1.1" xmlns="http://www.w3.org/2000/svg" xmlns:xlink="http://www.w3.org/1999/xlink">
    <!-- Generator: Sketch 60.1 (88133) - https://sketch.com -->
    <title>Combined Shape Copy 3</title>
    <desc>Created with Sketch.</desc>
    <defs>
        <linearGradient x1="5.49211955%" y1="90.0228726%" x2="96.1752132%" y2="28.4855062%" id="linearGradient-1">
            <stop stop-color="#EFEFF4" offset="0%"></stop>
            <stop stop-color="#FFFFFF" offset="100%"></stop>
        </linearGradient>
        <filter x="-0.0%" y="0.0%" width="100.0%" height="100.0%" filterUnits="objectBoundingBox" id="filter-2">
            <feGaussianBlur stdDeviation="0" in="SourceGraphic"></feGaussianBlur>
        </filter>
    </defs>
    <g id="Page-1" stroke="none" stroke-width="1" fill="none" fill-rule="evenodd" opacity="0.986979167">
        <g id="Subscribe" transform="translate(-213.000000, -170.000000)" fill="url(#linearGradient-1)">
            <path d="M551.14761,249.48718 C637.659007,234.166336 672.779826,274.911203 656.510066,371.721779 C640.240306,468.532355 569.509703,525.074156 444.318255,541.347182 C353.724852,538.750045 353.724852,522.15661 444.318255,491.566877 C534.911659,460.977144 570.521444,380.283911 551.14761,249.48718 Z M371.774408,184.139997 C458.285805,168.819154 493.406623,209.56402 477.136864,306.374596 C460.867104,403.185172 390.1365,459.726974 264.945053,476 C174.351649,473.402862 174.351649,456.809427 264.945053,426.219694 C355.538456,395.629961 391.148241,314.936729 371.774408,184.139997 Z" id="Combined-Shape-Copy-3" filter="url(#filter-2)" transform="translate(428.686601, 361.173591) scale(-1, 1) rotate(-30.000000) translate(-428.686601, -361.173591) "></path>
        </g>
    </g>
</svg>