<?xml version="1.0" encoding="UTF-8" standalone="no"?>
<svg width="470px" height="474px" viewBox="0 0 470 474" version="1.1" xmlns="http://www.w3.org/2000/svg" xmlns:xlink="http://www.w3.org/1999/xlink">
    <!-- Generator: Sketch 39 (31667) - http://www.bohemiancoding.com/sketch -->
    <title>share</title>
    <desc>Created with Sketch.</desc>
    <defs></defs>
    <g id="Page-1" stroke="none" stroke-width="1" fill="none" fill-rule="evenodd">
        <g id="share" fill="#7D7D7D">
            <path d="M383.513,301.214 C356.075,301.214 331.873,314.286 316.061,334.304 L169.401,259.302 C171.321,252.141 172.701,244.742 172.701,236.955 C172.701,228.478 171.062,220.497 168.775,212.731 L314.788,138.075 C330.513,158.999 355.341,172.675 383.534,172.675 C431.292,172.675 469.925,134.042 469.925,86.327 C469.926,38.655 431.292,0 383.535,0 C335.885,0 297.209,38.655 297.209,86.326 C297.209,94.135 298.59,101.555 300.531,108.738 L153.892,183.74 C138.059,163.701 113.813,150.586 86.332,150.586 C38.617,150.586 0.006,189.262 0.006,236.955 C0.006,284.648 38.618,323.303 86.332,323.303 C114.568,323.303 139.375,309.584 155.164,288.639 L301.112,363.295 C298.825,371.039 297.165,379.085 297.165,387.584 C297.165,435.277 335.841,473.932 383.491,473.932 C431.249,473.932 469.882,435.277 469.882,387.584 C469.904,339.848 431.271,301.214 383.513,301.214 L383.513,301.214 Z" id="Shape"></path>
        </g>
    </g>
</svg>